<svg xmlns="http://www.w3.org/2000/svg" width="93.277" height="148.39" viewBox="0 0 93.277 148.39">
  <path id="Path_285" data-name="Path 285" d="M990.585,721.134a3.252,3.252,0,0,0-1.41-2.428c-5.218-3.056-7.306,5.5-8.656,8.548-.748,1.686-2.2,5.31-2.71,1.622a42.961,42.961,0,0,1,.023-5.249c-.049-3.38-.108-6.76-.24-10.137-.625-16.081-1.652-32.17-3.336-48.178-.455-4.309-.946-8.621-1.6-12.907a98.185,98.185,0,0,0-2.587-11.679,54.909,54.909,0,0,0-4.417-11.51,32.821,32.821,0,0,0-3.818-5.56,25.839,25.839,0,0,0-4.614-4.115,28.453,28.453,0,0,0-5.17-3,24.638,24.638,0,0,0-3.316-1.24,26,26,0,0,0-3.653-.652,44.179,44.179,0,0,0-5.534-.3c-1.906,0-3.814.072-5.7.113-3.865.085-7.726.329-11.591.417a72.706,72.706,0,0,0-21.961,2.954,3.954,3.954,0,0,0,2.1,7.625c3.273-.848,6.538-1.647,9.876-2.177,2.625-.295,5.263-.369,7.9-.437q4.06-.109,8.108-.289,4.263-.191,8.521-.236a68.1,68.1,0,0,1,8.021.213,21.277,21.277,0,0,1,3.588,1,31.021,31.021,0,0,1,4.9,2.893,24.288,24.288,0,0,1,3.343,3.329,37.227,37.227,0,0,1,3.525,6.234,91.851,91.851,0,0,1,5.19,20.8c1,7.774,1.687,15.585,2.332,23.393.672,8.17,1.22,16.347,1.587,24.533.17,3.749.382,7.5.494,11.251.112,3.818.158,7.637.22,11.455.025,1.581.47,4.42-1.4,2.08-.885-1.106-1.109-2.83-1.713-4.05-1.358-2.741-2.747-7.487-5.544-9.123-1.965-1.148-5.072-.384-5.795,1.906-.553,1.754.434,3.869,1.19,5.409.826,1.682,1.466,3.487,2.174,5.252,1.682,4.2,3.3,8.421,4.778,12.692,1.035,2.981,2.058,5.961,3.143,8.923.6,1.641,1.232,3.266,1.869,4.892.37.957.772,1.907,1.185,2.845.649,1.471,1.382,3.134,2.9,3.891,5.1,2.547,5.937-3.53,6.527-6.865a56.763,56.763,0,0,1,2.165-9.184c1.229-3.448,2.5-6.877,3.889-10.264.806-1.889,1.633-3.77,2.466-5.647A48.79,48.79,0,0,0,990.3,724.8,8.807,8.807,0,0,0,990.585,721.134Z" transform="translate(-897.39 -614.35)" fill="#c72525"/>
</svg>
