<svg xmlns="http://www.w3.org/2000/svg" width="177.839" height="183.539" viewBox="0 0 177.839 183.539">
  <path id="Path_256" data-name="Path 256" d="M773.829,98.406c-.634-3.889-4.248-4.122-7.393-4.786a27.269,27.269,0,0,1-4.588-1.445c-2.976-1.276-5.9-2.686-8.864-3.974a33.4,33.4,0,0,1-6.7-3.3c-1.249-.93-2.872-2.759-4.617-2.283a2.9,2.9,0,0,0-1.721,1.325c-.946,1.6-.017,3.217,1.217,4.34a23.655,23.655,0,0,0,5.777,3.5c1.449.692,2.921,1.332,4.392,1.974.675.294,3.464.854,3.239,1.8-.209.882-1.652.345-2.228.342-1.388-.006-2.775-.017-4.162-.044a143.641,143.641,0,0,1-16.216-1.415c.253.034.509.068.765.1q-2.68-.365-5.364-.71a28.957,28.957,0,0,1-6.383-1.48,15.976,15.976,0,0,1-2.5-1.479,21.788,21.788,0,0,1-2.973-3.115,45.077,45.077,0,0,1-4.149-7c-1.2-2.453-2.256-4.975-3.426-7.447a46.334,46.334,0,0,0-4.556-7.6,49.81,49.81,0,0,0-5.616-6.545A53.658,53.658,0,0,0,683.2,49.135a51.884,51.884,0,0,0-8.764-3.038,49.934,49.934,0,0,0-8.493-1.436c-1.4-.115-2.808-.154-4.214-.154-1.455,0-2.912.042-4.367.087-2.914.087-5.822.262-8.724.54a60.343,60.343,0,0,0-9.349,1.544,65,65,0,0,0-8.265,2.756,46.474,46.474,0,0,0-7.827,4.081,30.217,30.217,0,0,0-7.177,6.766,41.217,41.217,0,0,0-7.895,16.444c-.163.717-.248,1.452-.349,2.177-.13.937-.231,1.87-.287,2.812a38.2,38.2,0,0,0,.009,4.255,86.09,86.09,0,0,0,1,9.61,54.642,54.642,0,0,0,6.181,17.342,36.6,36.6,0,0,0,5.383,7.456,42.654,42.654,0,0,0,7.349,6.133,38.884,38.884,0,0,0,3.9,2.306,36.512,36.512,0,0,0,4.432,1.874,54.521,54.521,0,0,0,8.805,2.216,65.617,65.617,0,0,0,9.048.976c3.1.11,6.193.045,9.293-.085a48.717,48.717,0,0,0,9.255-1.085,42.257,42.257,0,0,0,9.054-3.19,28.572,28.572,0,0,0,3.625-2.246,29.117,29.117,0,0,0,3.707-2.981,26.673,26.673,0,0,0,3.046-3.74,32.724,32.724,0,0,0,2.311-3.834,25.59,25.59,0,0,0,2.548-8.853A51.584,51.584,0,0,0,696.5,99.6c-.144-2.987-.461-5.957-.895-8.916a37.495,37.495,0,0,0-2.075-8.094,36.747,36.747,0,0,0-11.042-15.17,66.714,66.714,0,0,0-7.906-5.642,34.167,34.167,0,0,0-8.39-3.538,38.251,38.251,0,0,0-4.317-.9,43.442,43.442,0,0,0-4.756-.492,39.406,39.406,0,0,0-9.076.613,19.625,19.625,0,0,0-8.791,4.3,27.2,27.2,0,0,0-5.6,6.775,30.913,30.913,0,0,0-1.955,3.893c-.683,1.608-1.31,3.223-1.847,4.888a38.742,38.742,0,0,0-1.718,9.326,36.708,36.708,0,0,0,.036,4.494,43.466,43.466,0,0,0,.517,4.719,24.615,24.615,0,0,0,1.016,4.165,29.636,29.636,0,0,0,2.084,4.618,16.208,16.208,0,0,0,1.164,1.715c.619.818,1.254,1.614,1.935,2.379a28.474,28.474,0,0,0,3.445,3.172,44.516,44.516,0,0,0,7.225,4.79,25.627,25.627,0,0,0,4.694,1.862,20.478,20.478,0,0,0,4.857.818,27.336,27.336,0,0,0,4.961-.321,28.411,28.411,0,0,0,4.258-.861,38.693,38.693,0,0,0,8.064-3.442,13.154,13.154,0,0,0,3.81-3.17,12.538,12.538,0,0,0,2.464-4.826,23.841,23.841,0,0,0-.062-9.135,20.162,20.162,0,0,0-1.15-4.061,44.339,44.339,0,0,0-1.879-4.255,23.536,23.536,0,0,0-1.946-3.156,33.073,33.073,0,0,0-2.877-3.569,17.034,17.034,0,0,0-8.516-4.744,19.437,19.437,0,0,0-4.4-.467,19.909,19.909,0,0,0-2.526.264,10.274,10.274,0,0,0-2.067.5,17.729,17.729,0,0,0-2.3,1.023,14.567,14.567,0,0,0-2.028,1.4,11.956,11.956,0,0,0-2.807,3.158,24.738,24.738,0,0,0-1.96,4.058A13.888,13.888,0,0,0,643,93.148a19.741,19.741,0,0,0,.278,2.576,13.907,13.907,0,0,0,.422,1.918,13.077,13.077,0,0,0,2.379,4.68,17.764,17.764,0,0,0,3.142,2.981,12.756,12.756,0,0,0,4.666,2.359,14.749,14.749,0,0,0,4.548.372,17.067,17.067,0,0,0,4.126-.787,9.6,9.6,0,0,0,3.788-2.371,15.556,15.556,0,0,0,1.575-1.893c.181-.253.346-.511.509-.776a7.636,7.636,0,0,0,1-3.13,9.364,9.364,0,0,0-.225-3.114,8.9,8.9,0,0,0-1.769-3.74,9.725,9.725,0,0,0-2.654-2.123,35.143,35.143,0,0,0-3.941-1.831c-.23-.1-.461-.194-.689-.29a2.879,2.879,0,0,0-3.543,3.541,2.737,2.737,0,0,0,1.324,1.721,30.521,30.521,0,0,1,4.732,2.326c.146.13.283.264.417.407.1.169.2.339.291.515a11.436,11.436,0,0,1,.319,1.238,7.614,7.614,0,0,1,.017.865c-.043.167-.091.329-.145.49-.171.312-.355.607-.555.9a11.7,11.7,0,0,1-1.259,1.29c-.248.155-.492.3-.75.426a13.33,13.33,0,0,1-2.062.519,15.859,15.859,0,0,1-2.689.059,11.533,11.533,0,0,1-1.7-.44,14.264,14.264,0,0,1-2.127-1.292,17.528,17.528,0,0,1-2-1.977,11.848,11.848,0,0,1-.857-1.494,18.792,18.792,0,0,1-.736-2.957,11.952,11.952,0,0,1-.035-1.923,19.059,19.059,0,0,1,.967-3.027,18.677,18.677,0,0,1,1.7-3.116,10.1,10.1,0,0,1,1.138-1.1,13.466,13.466,0,0,1,2.038-1.208,13.792,13.792,0,0,1,2.2-.543,16.12,16.12,0,0,1,2.947.031,17.717,17.717,0,0,1,3.218.857,16.311,16.311,0,0,1,2.547,1.5,21.067,21.067,0,0,1,2.586,2.778,26.754,26.754,0,0,1,1.932,2.89,34.181,34.181,0,0,1,1.556,3.14,24.924,24.924,0,0,1,1.469,5.034,24.845,24.845,0,0,1,.147,5.181,11.32,11.32,0,0,1-.484,1.721,13.7,13.7,0,0,1-.845,1.445,11.674,11.674,0,0,1-1.1,1.128,26.373,26.373,0,0,1-4.557,2.524c-1.163.464-2.336.882-3.539,1.243a26.133,26.133,0,0,1-3.673.764c-.828.092-1.655.161-2.489.206a16.049,16.049,0,0,1-2.284-.083,24.754,24.754,0,0,1-4.525-1.241,39.027,39.027,0,0,1-6.937-4.17c-.819-.646-1.617-1.31-2.389-2.012a25.051,25.051,0,0,1-2.408-2.581c-.435-.592-.852-1.195-1.248-1.815a16.728,16.728,0,0,1-1.053-2.053c-.374-.965-.695-1.939-.972-2.939a24.48,24.48,0,0,1-.558-2.86q-.276-2.389-.325-4.8A33.141,33.141,0,0,1,634.1,84.5a38.972,38.972,0,0,1,.955-4.452c.445-1.523.948-3.009,1.525-4.486a35.62,35.62,0,0,1,3.711-6.629,24.459,24.459,0,0,1,2.9-2.983,21.5,21.5,0,0,1,3.724-2.191,19.506,19.506,0,0,1,1.973-.6c.543-.134,1.1-.218,1.65-.3a36.407,36.407,0,0,1,4.928-.291,49.522,49.522,0,0,1,5.069.363,37.487,37.487,0,0,1,7.646,2.06,37.014,37.014,0,0,1,4.529,2.4c1.56.97,3.044,2.042,4.5,3.151,1.207.95,2.388,1.928,3.494,2.994a30.652,30.652,0,0,1,7.013,9.976,33.748,33.748,0,0,1,1.5,4.511,49.351,49.351,0,0,1,.934,4.975c.3,2.432.511,4.867.61,7.319a51.1,51.1,0,0,1-.068,7.279,25.691,25.691,0,0,1-1.433,5.458,31,31,0,0,1-3.264,5.42,21.5,21.5,0,0,1-3.065,3.091,34.278,34.278,0,0,1-5.935,3.6,41.8,41.8,0,0,1-8.941,2.465,97.8,97.8,0,0,1-10.036.56,75.178,75.178,0,0,1-10.007-.533c-2.05-.3-4.075-.683-6.1-1.149a45.669,45.669,0,0,1-5.966-1.862,41.009,41.009,0,0,1-3.861-1.958,39.8,39.8,0,0,1-3.849-2.622c-1.037-.828-2.03-1.688-2.991-2.606a33.522,33.522,0,0,1-2.721-2.979,48.159,48.159,0,0,1-5.285-9.339,49.055,49.055,0,0,1-2.156-6.331,63.923,63.923,0,0,1-1.307-6.436,56.427,56.427,0,0,1-.382-12.455,35.353,35.353,0,0,1,.759-3.665,33.07,33.07,0,0,1,1.251-3.658,44.237,44.237,0,0,1,4.821-8.426,33.017,33.017,0,0,1,4.644-4.813,42.865,42.865,0,0,1,7.9-4.462,60.5,60.5,0,0,1,6.5-2.251,59.655,59.655,0,0,1,7.275-1.524c3.7-.437,7.41-.664,11.13-.777,1.811-.054,3.63-.113,5.439-.071,1.7.041,3.394.181,5.082.39a54.93,54.93,0,0,1,11.626,3.247,51.893,51.893,0,0,1,9.837,5.845,46.575,46.575,0,0,1,8.155,8.094,50.268,50.268,0,0,1,4.5,7.078c1.28,2.481,2.332,5.071,3.513,7.6a49.612,49.612,0,0,0,4.066,7.284,36.89,36.89,0,0,0,2.753,3.462,18.832,18.832,0,0,0,3.828,3.206,19.472,19.472,0,0,0,6.888,2.509c2,.39,4.038.61,6.062.869,5.7.777,11.4,1.5,17.152,1.715,1.455.055,2.923,0,4.376.083,1.283.074,1.117.6.154,1.2a34.356,34.356,0,0,0-3.538,2.638c-1.986,1.631-3.709,3.544-5.6,5.282a2.88,2.88,0,0,0,4.073,4.073c1.088-1,2.126-2.064,3.189-3.094s2.161-2,3.318-2.918a34.463,34.463,0,0,1,6.482-3.679,49.068,49.068,0,0,1,5.661-1.823c2.311-.61,4.7-.954,7.053-1.372a2.78,2.78,0,0,0,1.721-1.322A3.287,3.287,0,0,0,773.829,98.406Z" transform="translate(617.366 -361.788) rotate(132)" fill="#c72525"/>
</svg>
