<svg id="iconfinder_77-behance_104426" xmlns="http://www.w3.org/2000/svg" width="40.685" height="40.685" viewBox="0 0 40.685 40.685">
  <path id="Path_10" data-name="Path 10" d="M37.4,27.257a3.035,3.035,0,0,0-2.986,2.617h5.575A2.525,2.525,0,0,0,37.4,27.257Z" transform="translate(-9.06 -8.953)"/>
  <path id="Path_11" data-name="Path 11" d="M21.681,30.425H16.739v4.537h4.375c.074,0,.186,0,.316,0,.7-.017,2.038-.221,2.038-2.206C23.469,30.4,21.681,30.425,21.681,30.425Z" transform="translate(-5.986 -9.504)"/>
  <path id="Path_12" data-name="Path 12" d="M24.066,5.1A20.343,20.343,0,1,0,44.408,25.443,20.342,20.342,0,0,0,24.066,5.1Zm4.282,12.5h7v2.09h-7Zm-3.54,10.964c0,5.181-5.39,5.01-5.39,5.01H10.585V16.6h8.833c2.683,0,4.8,1.482,4.8,4.519a2.947,2.947,0,0,1-2.59,3.23C25.044,24.35,24.808,28.565,24.808,28.565Zm13.1-.278h-8.8A2.762,2.762,0,0,0,32.1,31.241c2.82,0,2.722-1.827,2.722-1.827H37.81c0,4.847-5.81,4.515-5.81,4.515a6.021,6.021,0,0,1-6.521-6.489S25.472,20.92,32,20.92C38.871,20.92,37.909,28.287,37.909,28.287Z" transform="translate(-3.723 -5.101)"/>
  <path id="Path_13" data-name="Path 13" d="M22.881,24.438c0-1.765-1.2-1.765-1.2-1.765H16.739V26.46h4.635C22.174,26.46,22.881,26.2,22.881,24.438Z" transform="translate(-5.986 -8.156)"/>
</svg>
