<svg id="iconfinder_42-dribbble_104457" xmlns="http://www.w3.org/2000/svg" width="40.687" height="40.685" viewBox="0 0 40.687 40.685">
  <path id="Path_1" data-name="Path 1" d="M26.566,29.416c.164-.055.33-.1.5-.152-.316-.716-.662-1.434-1.023-2.143a46,46,0,0,1-12.945,1.8c0,.135-.011.266-.011.4a12.552,12.552,0,0,0,3.231,8.426.031.031,0,0,0,0-.007A19.957,19.957,0,0,1,26.566,29.416Z" transform="translate(-5.35 -8.976)" fill="#fff"/>
  <path id="Path_2" data-name="Path 2" d="M25.051,23.243a75.849,75.849,0,0,0-4.681-7.266,12.623,12.623,0,0,0-6.959,8.806A46.734,46.734,0,0,0,25.051,23.243Z" transform="translate(-5.407 -7.038)" fill="#fff"/>
  <path id="Path_3" data-name="Path 3" d="M36.049,17.665a12.615,12.615,0,0,0-11.3-2.791,64.273,64.273,0,0,1,4.715,7.357C34.222,20.445,36.018,17.711,36.049,17.665Z" transform="translate(-7.378 -6.785)" fill="#fff"/>
  <path id="Path_4" data-name="Path 4" d="M24.683,14.963a.13.13,0,0,0-.042.01l.039-.01Z" transform="translate(-7.359 -6.862)" fill="#fff"/>
  <path id="Path_5" data-name="Path 5" d="M18.906,41.766l0,0c-.093-.073-.192-.139-.284-.216C18.792,41.681,18.906,41.766,18.906,41.766Z" transform="translate(-6.313 -11.484)" fill="#fff"/>
  <path id="Path_6" data-name="Path 6" d="M31.63,25.076c.293.6.576,1.214.839,1.828.092.221.183.437.271.653a29.324,29.324,0,0,1,8.783.41,12.552,12.552,0,0,0-2.867-7.881A16.241,16.241,0,0,1,31.63,25.076Z" transform="translate(-8.574 -7.753)" fill="#fff"/>
  <path id="Path_7" data-name="Path 7" d="M28.862,32.272c-7.442,2.595-9.871,7.823-9.894,7.872a12.588,12.588,0,0,0,12.67,1.675,52.512,52.512,0,0,0-2.695-9.575C28.917,32.255,28.89,32.263,28.862,32.272Z" transform="translate(-6.373 -9.867)" fill="#fff"/>
  <path id="Path_8" data-name="Path 8" d="M24.065,5.157A20.343,20.343,0,1,0,44.409,25.5,20.344,20.344,0,0,0,24.065,5.157Zm13.6,26.091a14.541,14.541,0,0,1-1.361,2.507,14.82,14.82,0,0,1-1.8,2.185,15.062,15.062,0,0,1-2.183,1.8,14.754,14.754,0,0,1-16.513,0,15.062,15.062,0,0,1-2.183-1.8A14.725,14.725,0,0,1,9.6,28.473a14.962,14.962,0,0,1,0-5.945,14.722,14.722,0,0,1,2.223-5.285,14.82,14.82,0,0,1,6.5-5.349,14.591,14.591,0,0,1,2.773-.86,14.9,14.9,0,0,1,5.948,0,14.628,14.628,0,0,1,2.773.86,14.8,14.8,0,0,1,2.509,1.363,15.1,15.1,0,0,1,2.183,1.8,14.864,14.864,0,0,1,1.8,2.185,14.681,14.681,0,0,1,2.221,5.285,14.8,14.8,0,0,1,0,5.945A14.547,14.547,0,0,1,37.668,31.248Z" transform="translate(-3.722 -5.157)" fill="#fff"/>
  <path id="Path_9" data-name="Path 9" d="M33.9,31.5A54.743,54.743,0,0,1,36.359,40.5a12.61,12.61,0,0,0,5.4-8.458A18.3,18.3,0,0,0,33.9,31.5Z" transform="translate(-8.97 -9.701)" fill="#fff"/>
</svg>
