<svg xmlns="http://www.w3.org/2000/svg" width="40.48" height="40.48" viewBox="0 0 40.48 40.48">
  <path id="iconmonstr-linkedin-3" d="M32.047,0H8.433A8.434,8.434,0,0,0,0,8.433V32.047A8.434,8.434,0,0,0,8.433,40.48H32.047a8.433,8.433,0,0,0,8.433-8.433V8.433A8.433,8.433,0,0,0,32.047,0ZM13.493,32.047H8.433V13.493h5.06Zm-2.53-20.692a2.975,2.975,0,1,1,2.952-2.975A2.964,2.964,0,0,1,10.963,11.355Zm22.77,20.692h-5.06V22.595c0-5.681-6.747-5.251-6.747,0v9.452h-5.06V13.493h5.06V16.47c2.355-4.362,11.807-4.684,11.807,4.176Z" fill="#fff"/>
</svg>
